<svg slot="start" xmlns="http://www.w3.org/2000/svg" xmlns:xlink="http://www.w3.org/1999/xlink"
    width="28px" height="30px" viewBox="0 0 40 48" version="1.1">
    <defs>
        <linearGradient id="linear0" gradientUnits="userSpaceOnUse" x1="26.648937" y1="20.603781"
            x2="135.66525" y2="114.39767"
            gradientTransform="matrix(0.216362,0,0,0.21637,-5.765815,-4.458046)">
            <stop offset="0" style="stop-opacity:1;" />
            <stop offset="1" style="stop-opacity:1;" />
        </linearGradient>
        <linearGradient id="linear1" gradientUnits="userSpaceOnUse" x1="150.96111" y1="192.35176"
            x2="112.03144" y2="137.27299"
            gradientTransform="matrix(0.216362,0,0,0.21637,-5.765815,-4.458046)">
            <stop offset="0" style="stop-opacity:1;" />
            <stop offset="1" style="stop-opacity:1;" />
        </linearGradient>
        <filter id="alpha" filterUnits="objectBoundingBox" x="0%" y="0%" width="100%" height="100%">
            <feColorMatrix type="matrix" in="SourceGraphic"
                values="0 0 0 0 1 0 0 0 0 1 0 0 0 0 1 0 0 0 1 0" />
        </filter>
        <mask id="mask0">
            <g filter="url(#alpha)">
                <rect x="0" y="0" width="40" height="48"
                    style="fill:rgb(0%,0%,0%);fill-opacity:0.443137;stroke:none;" />
            </g>
        </mask>
        <radialGradient id="radial0" gradientUnits="userSpaceOnUse" cx="61.518883" cy="132.28575"
            fx="61.518883" fy="132.28575" r="29.036913"
            gradientTransform="matrix(0.00000000672714,-0.0914084,0.405642,0.00000014444,-32.192615,54.271242)">
            <stop offset="0"
                style="stop-color:rgb(72.156863%,72.156863%,72.156863%);stop-opacity:0.498039;" />
            <stop offset="1"
                style="stop-color:rgb(49.803922%,49.803922%,49.803922%);stop-opacity:0;" />
        </radialGradient>
        <clipPath id="clip1">
            <rect x="0" y="0" width="40" height="48" />
        </clipPath>
        <g id="surface5" clip-path="url(#clip1)">
            <path style=" stroke:none;fill-rule:nonzero;fill:url(#radial0);"
                d="M 35.289062 48.648438 C 35.289062 47.183594 29.101562 45.992188 21.46875 45.992188 C 13.835938 45.992188 7.648438 47.183594 7.648438 48.648438 C 7.648438 50.113281 13.835938 51.300781 21.46875 51.300781 C 29.101562 51.300781 35.289062 50.113281 35.289062 48.648438 Z M 35.289062 48.648438 " />
        </g>
    </defs>
    <g id="surface1">
        <path style=" stroke:none;fill-rule:nonzero;fill:url(#linear0);"
            d="M 21.121094 0 C 19.359375 0.0078125 17.675781 0.15625 16.195312 0.417969 C 11.832031 1.179688 11.039062 2.777344 11.039062 5.726562 L 11.039062 9.621094 L 21.351562 9.621094 L 21.351562 10.917969 L 7.167969 10.917969 C 4.171875 10.917969 1.546875 12.703125 0.726562 16.09375 C -0.222656 19.984375 -0.261719 22.414062 0.726562 26.476562 C 1.460938 29.5 3.210938 31.65625 6.207031 31.65625 L 9.753906 31.65625 L 9.753906 26.988281 C 9.753906 23.617188 12.699219 20.644531 16.195312 20.644531 L 26.496094 20.644531 C 29.363281 20.644531 31.652344 18.304688 31.652344 15.453125 L 31.652344 5.726562 C 31.652344 2.957031 29.292969 0.878906 26.496094 0.417969 C 24.722656 0.125 22.886719 -0.0078125 21.121094 0 Z M 15.546875 3.132812 C 16.609375 3.132812 17.480469 4.007812 17.480469 5.082031 C 17.480469 6.15625 16.609375 7.023438 15.546875 7.023438 C 14.476562 7.023438 13.609375 6.15625 13.609375 5.082031 C 13.609375 4.007812 14.476562 3.132812 15.546875 3.132812 Z M 15.546875 3.132812 " />
        <path style=" stroke:none;fill-rule:nonzero;fill:url(#linear1);"
            d="M 32.9375 10.917969 L 32.9375 15.453125 C 32.9375 18.96875 29.925781 21.929688 26.496094 21.929688 L 16.195312 21.929688 C 13.375 21.929688 11.039062 24.320312 11.039062 27.121094 L 11.039062 36.84375 C 11.039062 39.613281 13.46875 41.242188 16.195312 42.035156 C 19.460938 42.988281 22.589844 43.160156 26.496094 42.035156 C 29.089844 41.292969 31.652344 39.792969 31.652344 36.84375 L 31.652344 32.953125 L 21.351562 32.953125 L 21.351562 31.65625 L 36.808594 31.65625 C 39.804688 31.65625 40.921875 29.585938 41.964844 26.476562 C 43.039062 23.277344 42.996094 20.199219 41.964844 16.09375 C 41.222656 13.140625 39.808594 10.917969 36.808594 10.917969 Z M 27.144531 35.546875 C 28.214844 35.546875 29.078125 36.414062 29.078125 37.488281 C 29.078125 38.566406 28.214844 39.441406 27.144531 39.441406 C 26.078125 39.441406 25.210938 38.566406 25.210938 37.488281 C 25.210938 36.414062 26.078125 35.546875 27.144531 35.546875 Z M 27.144531 35.546875 " />
        <use xlink:href="#surface5" mask="url(#mask0)" />
    </g>
</svg>