<svg slot="start" xmlns="http://www.w3.org/2000/svg" version="1.0" width="40" height="36"
    viewBox="0 0 192.000000 192.000000" preserveAspectRatio="xMidYMid meet" id="wordleIcon">
    <g transform="translate(0.000000,192.000000) scale(0.100000,-0.100000)" stroke="none">
        <path
            d="M192 1880 c-69 -35 -125 -92 -156 -159 -21 -46 -21 -52 -21 -766 l0 -720 28 -57 c30 -61 74 -105 140 -140 l42 -23 736 0 735 0 59 30 c67 34 127 104 148 170 9 30 12 211 12 735 0 810 6 761 -99 866 -100 100 -49 94 -861 94 l-702 0 -61 -30z m1464 -45 c64 -19 122 -68 159 -136 l30 -54 3 -575 c2 -391 0 -591 -8 -625 -13 -61 -80 -144 -144 -178 -41 -22 -41 -22 -711 -25 -467 -2 -682 0 -710 8 -61 17 -131 73 -165 132 l-30 53 0 600 0 600 24 50 c36 77 99 132 176 156 14 4 318 8 676 8 546 1 658 -1 700 -14z" />
        <path
            d="M1325 1651 c-38 -16 -52 -47 -75 -164 l-23 -117 -27 64 c-15 35 -36 87 -46 116 -10 29 -32 63 -48 77 -28 24 -34 24 -147 21 -97 -2 -121 -6 -137 -21 -20 -18 -46 -94 -73 -207 l-12 -55 -38 113 c-20 62 -47 124 -60 138 -22 23 -27 24 -157 24 l-134 0 -30 -30 c-43 -43 -40 -56 52 -300 11 -30 22 -59 23 -63 1 -4 -60 -29 -135 -54 l-138 -46 0 -317 c0 -354 3 -375 67 -449 19 -23 57 -53 84 -66 l48 -25 625 0 c613 0 625 0 680 21 73 28 133 81 162 143 23 50 24 56 24 369 l0 318 -46 19 c-25 11 -77 29 -117 41 -40 12 -75 24 -79 28 -3 3 11 82 33 175 44 189 43 213 -12 241 -31 16 -228 20 -264 6z m244 -64 c8 -11 -12 -114 -84 -423 -52 -225 -97 -415 -100 -422 -3 -8 -32 -12 -99 -12 l-94 0 -6 -27 c-3 -16 -8 -45 -12 -67 l-7 -38 -29 73 c-17 41 -39 97 -49 124 -11 28 -24 59 -28 70 -5 11 -18 42 -28 68 -11 27 -24 48 -29 47 -5 -1 -19 -41 -31 -89 -11 -47 -33 -129 -47 -183 -14 -53 -26 -100 -26 -105 -1 -4 -11 21 -23 56 l-22 64 -91 -2 c-65 -2 -93 2 -101 11 -5 7 -67 168 -138 358 -70 190 -136 368 -146 395 -35 94 -30 97 126 93 l100 -3 71 -215 71 -215 11 40 c6 22 32 119 57 217 41 151 50 177 69 182 32 9 169 7 184 -2 10 -7 44 -89 167 -402 17 -44 16 -46 60 180 19 102 37 195 40 207 5 23 1 22 181 31 25 1 46 -3 53 -11z" />
    </g>
</svg>